<?xml version="1.0" encoding="UTF-8"?>
<svg width="77px" height="32px" viewBox="0 0 77 32" version="1.1" xmlns="http://www.w3.org/2000/svg" xmlns:xlink="http://www.w3.org/1999/xlink">
    <!-- Generator: Sketch 47.1 (45422) - http://www.bohemiancoding.com/sketch -->
    <title>Combined Shape</title>
    <desc>Created with Sketch.</desc>
    <defs>
        <linearGradient x1="50%" y1="0%" x2="50%" y2="100%" id="linearGradient-1">
            <stop stop-color="#607D8B" offset="0%"></stop>
            <stop stop-color="#263238" offset="100%"></stop>
        </linearGradient>
        <path d="M30.0106734,18.0968196 C30.016035,17.9265185 30.0234166,17.7448285 30.0328182,17.5517495 C30.0809514,16.5632444 30.1820298,15.4377357 30.3360562,14.1751897 C30.4900826,12.9126436 30.7018658,11.5913943 30.9714121,10.211402 C31.2409583,8.83140983 31.5730729,7.55420215 31.9677656,6.37974069 C32.3624584,5.20527923 32.8197175,4.21189548 33.3395567,3.39955964 C33.8593959,2.5872238 34.4562394,2.12233978 35.1301051,2.00489363 C35.3996514,1.98531928 35.6884466,2.0244674 35.9964995,2.12233919 C36.3045524,2.22021098 36.5933476,2.3474424 36.8628939,2.50403726 C37.2094533,2.66063212 37.5223149,2.88573386 37.8014878,3.17934922 C38.0806607,3.47296458 38.2491246,3.78614961 38.3068845,4.11891369 C38.3453911,4.29508291 38.3309513,4.48103652 38.2635648,4.67678009 C38.1961782,4.87252367 38.0662204,5.05847728 37.8736873,5.2346465 C37.5463811,5.60655929 37.2142666,6.13995254 36.8773338,6.83484223 C36.5404009,7.52973193 36.2082864,8.30780098 35.8809802,9.16907271 C35.5536741,10.0303444 35.2456258,10.9258579 34.9568262,11.8556399 C34.6680267,12.7854219 34.4225507,13.6760418 34.220391,14.5275263 C34.0182313,15.3790109 33.8690204,16.1521864 33.7727539,16.8470761 C33.6764874,17.5419658 33.6572344,18.0753591 33.7149943,18.4472718 C33.7535009,18.7017385 33.8353262,18.8974791 33.9604727,19.0344996 C34.0856192,19.1715201 34.2829626,19.2400294 34.5525088,19.2400294 C34.8605617,19.2400294 35.2023028,19.1079044 35.5777422,18.8436506 C35.9531816,18.5793968 36.3141757,18.2711053 36.6607352,17.9187668 C37.0072947,17.5664284 37.3297827,17.2189888 37.6282089,16.8764375 C37.7657977,16.7185049 37.8900848,16.5803371 38.001071,16.4619333 C38.011043,15.764692 38.090647,15.1188896 38.2398832,14.5245208 C38.5321549,13.3604789 39.0058296,12.3937468 39.6609214,11.6242954 C40.3160132,10.8548439 41.0869943,10.277764 41.9738878,9.89303832 C42.8607813,9.5083126 43.7778961,9.31595263 44.7252597,9.31595263 C45.0477664,9.31595263 45.3198774,9.38007262 45.5416008,9.50831453 C45.7633241,9.63655643 45.8943405,9.8289164 45.9346539,10.0854002 C46.0152806,10.4997202 45.8842642,10.7660648 45.5416008,10.8844419 C44.977214,11.0422781 44.4430702,11.3234196 43.9391534,11.7278748 C43.4352366,12.1323301 43.0119529,12.6403577 42.6692895,13.2519729 C42.3266261,13.8635882 42.0797106,14.5639757 41.9285355,15.3531567 C41.7773605,16.1423376 41.7723214,16.9808298 41.9134181,17.8686584 C41.9940448,18.2040603 42.1956085,18.5197279 42.5181152,18.8156708 C42.840622,19.1116136 43.173202,19.2595828 43.5158654,19.2595828 C44.0600956,19.2595828 44.5589657,18.973509 45.0124908,18.4013528 C45.4660159,17.8291967 45.8439478,17.0646891 46.1462979,16.1078072 C46.4486479,15.1509253 46.6602898,14.0608855 46.7812298,12.837655 C46.9021699,11.6144245 46.9021699,10.351754 46.7812298,9.0496054 C46.6804465,8.2209654 46.5242346,7.5057809 46.3125896,6.90403043 C46.1009445,6.30227996 45.8842636,5.7646585 45.6625402,5.29114994 C45.4408168,4.81764137 45.2392531,4.38359836 45.0578431,3.98900789 C44.876433,3.59441741 44.7756512,3.18996825 44.7554945,2.77564825 C44.6950245,2.42051682 44.7454154,2.12951072 44.9066688,1.90262119 C45.0679222,1.67573167 45.2846031,1.49816862 45.5567182,1.36992672 C45.8288332,1.24168481 46.1311788,1.15290329 46.4637638,1.10357948 C46.7963489,1.05425567 47.1037335,1.01972952 47.3859269,1 C47.7689037,1 48.1468356,1.16276613 48.519734,1.48830327 C48.8926324,1.81384041 49.2302516,2.25774803 49.5326017,2.82003946 C49.8349517,3.38233088 50.1020236,4.0383277 50.3338253,4.7880496 C50.5656271,5.5377715 50.7319171,6.33680522 50.8327004,7.18517474 C50.9334838,8.13219187 50.9889138,9.14331479 50.9989922,10.2185738 C51.0090705,11.2938329 50.9435623,12.3592112 50.8024656,13.4147407 C50.6613689,14.4702702 50.4194925,15.4863254 50.0768291,16.4629368 C49.7341657,17.4395483 49.2705692,18.3174989 48.6860257,19.0968151 C48.1014823,19.8761313 47.3657748,20.5222635 46.4788813,21.0352311 C45.5919877,21.5481987 44.5337784,21.8540017 43.3042215,21.9526493 C43.0220281,21.9921084 42.7347998,22.0069053 42.4425281,21.9970405 C42.1502564,21.9871758 41.8630281,21.9625143 41.5808347,21.9230552 C40.6939412,21.765219 39.9431164,21.4002283 39.328338,20.8280721 C38.7737025,20.3118892 38.4036367,19.6592213 38.2181321,18.8700521 C37.8553035,19.369589 37.4131871,19.8305674 36.8917737,20.2529973 C36.2756679,20.7521434 35.5969991,21.1680923 34.8557469,21.5008564 C34.1144946,21.8336205 33.3973198,22 32.7042008,22 C32.0495885,22 31.471998,21.8140464 30.9714121,21.4421336 C30.7049013,21.2441281 30.4929649,20.9795457 30.3356013,20.6483835 C30.1867803,20.791161 30.0305102,20.9309416 29.8667907,21.0677255 C29.2202042,21.607934 28.5281649,22.0650266 27.7906521,22.4390171 C27.0531393,22.8130076 26.3813055,23 25.7751306,23 C24.8658683,23 24.2243428,22.8130076 23.8505349,22.4390171 C23.4767271,22.0650266 23.2292094,21.4728839 23.1079744,20.6625712 C23.0473569,20.2678035 23.0119972,19.7431858 23.0018943,19.0887025 C22.9917914,18.4342192 23.0220997,17.7278033 23.0928201,16.9694338 C23.1635405,16.2110642 23.2797223,15.4371233 23.4413689,14.6475878 C23.6030156,13.8580524 23.820225,13.1360538 24.0930037,12.4815705 C24.3657824,11.8270872 24.6941222,11.2764983 25.078033,10.8297875 C25.4619437,10.3830766 25.9165681,10.1181707 26.4419197,10.0350617 C26.9672713,9.97272996 27.4218956,9.9935069 27.8058064,10.0973931 C28.1897171,10.2012794 28.452389,10.3571064 28.5938298,10.5648789 C28.7352706,10.7726514 28.8261955,10.9700323 28.8666072,11.1570275 C28.886813,11.5517952 28.8716588,11.9101974 28.8211443,12.2322448 C28.7706297,12.5542921 28.6898076,12.8867231 28.5786755,13.2295477 C28.4675434,13.5723723 28.3412589,13.9411629 28.1998181,14.3359307 C28.0583773,14.7306984 27.9068358,15.2085679 27.7451892,15.7695536 C27.6037484,16.2474304 27.4522069,16.8032134 27.2905603,17.4369195 C27.1289137,18.0706256 27.027886,18.7199049 26.9874744,19.3847768 C27.027886,19.7172128 27.2198385,19.8834283 27.5633376,19.8834283 C27.9876601,19.8834283 28.4877469,19.6081339 29.063613,19.0575368 C29.3720556,18.7626287 29.6877414,18.4423907 30.0106734,18.0968197 Z M64.0538838,20.5442742 C63.8054984,20.768786 63.5372418,20.9849466 63.2491129,21.192757 C62.5051077,21.7293641 61.6642925,22.164718 60.7266422,22.4988318 C59.7889918,22.8329456 58.8105887,23 57.7914035,23 C57.0575902,23 56.3696505,22.9038172 55.7275638,22.7114486 C55.0854772,22.51908 54.5198379,22.240656 54.030629,21.8761682 C53.5414201,21.5116804 53.1337522,21.0763265 52.8076129,20.5700935 C52.4814736,20.0638604 52.2572563,19.4867634 52.134954,18.838785 C51.9718844,17.9073162 51.9565969,16.9353633 52.0890909,15.9228972 C52.221585,14.9104311 52.5222401,13.9992252 52.9910653,13.1892523 C53.2356698,12.7640166 53.5465166,12.3590362 53.9236151,11.9742991 C54.3007136,11.5895619 54.7491484,11.2503909 55.2689328,10.9567757 C55.7887172,10.6631605 56.3849316,10.4302968 57.0575939,10.2581776 C57.7302561,10.0860583 58.4742501,10 59.2895982,10 C60.4514694,10 61.343243,10.237926 61.964946,10.713785 C62.5866489,11.1896441 62.9688376,11.822426 63.1115236,12.6121495 C63.2134421,13.3411251 63.1013334,14.0245295 62.7751941,14.6623832 C62.4490549,15.3002368 61.9751409,15.8570848 61.3534379,16.3329439 C60.731735,16.808803 59.9979326,17.1884721 59.1520089,17.4719626 C58.3060852,17.7554531 57.4143116,17.8971963 56.4766612,17.8971963 C56.5378123,18.5856732 56.7416463,19.1475835 57.0881693,19.5829439 C57.4346922,20.0183044 58.0360025,20.2663548 58.892118,20.3271028 C60.1151402,20.2866042 61.2209396,19.9119973 62.2095492,19.203271 C62.5337557,18.97085 62.8442597,18.7210085 63.141062,18.4537457 C62.924386,16.959601 62.9573261,15.6498716 63.2398832,14.5245208 C63.5321549,13.3604789 64.0058296,12.3937468 64.6609214,11.6242954 C65.3160132,10.8548439 66.0869943,10.277764 66.9738878,9.89303832 C67.8607813,9.5083126 68.7778961,9.31595263 69.7252597,9.31595263 C70.0477664,9.31595263 70.3198774,9.38007262 70.5416008,9.50831453 C70.7633241,9.63655643 70.8943405,9.8289164 70.9346539,10.0854002 C71.0152806,10.4997202 70.8842642,10.7660648 70.5416008,10.8844419 C69.977214,11.0422781 69.4430702,11.3234196 68.9391534,11.7278748 C68.4352366,12.1323301 68.0119529,12.6403577 67.6692895,13.2519729 C67.3266261,13.8635882 67.0797106,14.5639757 66.9285355,15.3531567 C66.7773605,16.1423376 66.7723214,16.9808298 66.9134181,17.8686584 C66.9940448,18.2040603 67.1956085,18.5197279 67.5181152,18.8156708 C67.840622,19.1116136 68.173202,19.2595828 68.5158654,19.2595828 C69.0600956,19.2595828 69.5589657,18.973509 70.0124908,18.4013528 C70.4660159,17.8291967 70.8439478,17.0646891 71.1462979,16.1078072 C71.4486479,15.1509253 71.6602898,14.0608855 71.7812298,12.837655 C71.9021699,11.6144245 71.9021699,10.351754 71.7812298,9.0496054 C71.6804465,8.2209654 71.5242346,7.5057809 71.3125896,6.90403043 C71.1009445,6.30227996 70.8842636,5.7646585 70.6625402,5.29114994 C70.4408168,4.81764137 70.2392531,4.38359836 70.0578431,3.98900789 C69.876433,3.59441741 69.7756512,3.18996825 69.7554945,2.77564825 C69.6950245,2.42051682 69.7454154,2.12951072 69.9066688,1.90262119 C70.0679222,1.67573167 70.2846031,1.49816862 70.5567182,1.36992672 C70.8288332,1.24168481 71.1311788,1.15290329 71.4637638,1.10357948 C71.7963489,1.05425567 72.1037335,1.01972952 72.3859269,1 C72.7689037,1 73.1468356,1.16276613 73.519734,1.48830327 C73.8926324,1.81384041 74.2302516,2.25774803 74.5326017,2.82003946 C74.8349517,3.38233088 75.1020236,4.0383277 75.3338253,4.7880496 C75.5656271,5.5377715 75.7319171,6.33680522 75.8327004,7.18517474 C75.9334838,8.13219187 75.9889138,9.14331479 75.9989922,10.2185738 C76.0090705,11.2938329 75.9435623,12.3592112 75.8024656,13.4147407 C75.6613689,14.4702702 75.4194925,15.4863254 75.0768291,16.4629368 C74.7341657,17.4395483 74.2705692,18.3174989 73.6860257,19.0968151 C73.1014823,19.8761313 72.3657748,20.5222635 71.4788813,21.0352311 C70.5919877,21.5481987 69.5337784,21.8540017 68.3042215,21.9526493 C68.0220281,21.9921084 67.7347998,22.0069053 67.4425281,21.9970405 C67.1502564,21.9871758 66.8630281,21.9625143 66.5808347,21.9230552 C65.6939412,21.765219 64.9431164,21.4002283 64.328338,20.8280721 C64.2311908,20.7376601 64.1397061,20.6430608 64.0538838,20.5442742 Z M56,15.9758791 C56.4115151,16.037521 56.8096052,15.9810168 57.1942823,15.8063649 C57.5789594,15.631713 57.9099557,15.3902861 58.187281,15.0820768 C58.4646064,14.7738676 58.6793067,14.4194323 58.8313883,14.0187603 C58.98347,13.6180883 59.0326721,13.2328326 58.9789963,12.8629815 C58.9432124,12.6164141 58.8671727,12.4109444 58.7508749,12.2465661 C58.6345772,12.0821879 58.4511874,12 58.2006999,12 C57.9502125,12 57.7042018,12.1027349 57.4626603,12.3082077 C57.2211189,12.5136805 56.9974728,12.7962014 56.7917152,13.1557788 C56.5859577,13.5153562 56.4115137,13.9365692 56.268378,14.4194303 C56.1252424,14.9022914 56.0357839,15.4211025 56,15.9758791 Z M29.8524871,1.64876324 C30.1733504,1.4849637 30.5159643,1.82823077 30.3524761,2.14970547 L29.3885658,4.04508919 L30.8898896,5.54927433 C31.1422916,5.80215733 30.9284791,6.23144184 30.5750373,6.18142277 L28.4375938,5.8789318 L27.45414,7.79750591 C27.2902681,8.117196 26.8141681,8.04190124 26.7565479,7.6871824 L26.4165724,5.59424011 L24.3145742,5.26525139 C23.9594951,5.20967712 23.8819747,4.73180515 24.2012108,4.56642619 L26.1324222,3.56596989 L25.828492,1.42615855 C25.7781748,1.07190187 26.2068442,0.857303462 26.4593839,1.11032448 L27.9607079,2.61450968 L29.8524871,1.64876324 Z M15.0537809,20.7021063 C14.698645,20.9027091 14.308988,21.0932789 13.884798,21.2738215 C13.460608,21.454364 13.0216272,21.6098288 12.5678426,21.7402207 C12.1140579,21.8706125 11.6602801,21.9709124 11.2064954,22.0411234 C10.7527107,22.1113344 10.3186624,22.1464393 9.90433724,22.1464393 C8.56271304,22.1464393 7.37894473,21.9909745 6.35299681,21.6800401 C5.32704889,21.3691058 4.45401977,20.9328012 3.73388325,20.3711133 C3.01374673,19.8094255 2.43665968,19.1324012 2.00260479,18.3400201 C1.5685499,17.547639 1.28247256,16.6700148 1.14436419,15.7071214 C0.947066513,14.463384 0.951998881,13.2096352 1.15916144,11.9458375 C1.366324,10.6820398 1.7510487,9.46841103 2.31334708,8.30491474 C2.87564546,7.14141846 3.59577118,6.05316454 4.47374584,5.04012036 C5.3517205,4.02707618 6.36285593,3.14945206 7.50718245,2.40722166 C8.65150898,1.66499127 9.91419517,1.07823686 11.2952789,0.646940822 C12.6763626,0.215644784 14.156073,0 15.7344544,0 C16.3460772,0 16.9428938,0.1002999 17.5249219,0.300902708 C18.10695,0.501505517 18.6347134,0.782345236 19.1082278,1.14343029 C19.5817423,1.50451535 19.9812641,1.9458349 20.3068052,2.46740221 C20.6323464,2.98896951 20.8444382,3.56067894 20.9430871,4.18254764 C21.0417359,4.88465747 21.0121417,5.54162182 20.8543036,6.15346038 C20.6964654,6.76529895 20.4646441,7.30691841 20.1588327,7.77833501 C19.8530213,8.2497516 19.4978908,8.62086123 19.0934306,8.89167503 C18.6889704,9.16248882 18.2993133,9.29789368 17.9244477,9.29789368 C17.5890416,9.29789368 17.2092493,9.20260878 16.7850593,9.01203611 C16.3608693,8.82146344 15.9465504,8.58074368 15.5420902,8.28986961 C15.1376299,7.99899554 14.7923642,7.69308084 14.5062825,7.37211635 C14.2202009,7.05115186 14.047568,6.75025216 13.9883787,6.46940822 C13.9489192,6.12838345 14.0919579,5.86760371 14.417499,5.68706118 C14.7430402,5.50651866 15.0735088,5.30591886 15.4089149,5.08525577 C15.7245912,4.98495436 16.030398,4.77432457 16.3263445,4.45336008 C16.622291,4.13239559 16.7505326,3.79137593 16.7110731,3.43029087 C16.6716135,3.12938666 16.4595217,2.87863691 16.0747912,2.6780341 C15.6900608,2.47743129 15.290539,2.37713139 14.8762138,2.37713139 C13.9883743,2.37713139 13.1498717,2.60280617 12.360681,3.05416249 C11.5714903,3.50551881 10.8513646,4.09728821 10.2002823,4.82948847 C9.54919994,5.56168872 8.98197763,6.39919288 8.49859832,7.34202608 C8.01521901,8.28485928 7.61569721,9.24272332 7.30002093,10.2156469 C6.98434464,11.1885706 6.76732046,12.1414196 6.64894185,13.0742227 C6.53056324,14.0070257 6.53056324,14.8344999 6.64894185,15.55667 C6.72786092,16.1183579 6.89062906,16.6449323 7.13725116,17.1364092 C7.38387325,17.6278861 7.70447717,18.0541607 8.09907252,18.4152457 C8.49366788,18.7763308 8.95731046,19.0571705 9.49001419,19.2577733 C10.0227179,19.4583761 10.6146021,19.558676 11.2656844,19.558676 C11.897037,19.558676 12.5530419,19.4333012 13.2337189,19.1825476 C13.9143959,18.9317941 14.5704008,18.6058195 15.2017534,18.2046138 C15.3398617,17.141419 15.4829004,16.2688098 15.6308737,15.5867603 C15.7788469,14.9047107 15.9465474,14.3630913 16.1339802,13.9618857 C16.321413,13.56068 16.5384372,13.2848553 16.7850593,13.1344032 C17.0316814,12.9839511 17.3226911,12.9087262 17.6580972,12.9087262 C17.8356651,12.9087262 18.1020129,12.9488461 18.4571488,13.0290873 C18.8122846,13.1093284 19.1674151,13.2246733 19.5225509,13.3751254 C19.8776867,13.5255775 20.1933583,13.6960873 20.469575,13.88666 C20.7457918,14.0772326 20.9036275,14.2928774 20.9430871,14.5336008 C20.9825466,14.7542639 20.9677495,15.0601786 20.8986953,15.4513541 C20.8296411,15.8425295 20.7457909,16.2387141 20.647142,16.6399198 C20.3709253,17.6830544 20.1341716,18.7412183 19.9368739,19.8144433 C19.7395763,20.8876684 19.5126873,21.9157423 19.2562004,22.8986961 C18.9997134,23.8816498 18.6988389,24.8044089 18.353568,25.667001 C18.0082971,26.5295931 17.5495868,27.2818423 16.9774236,27.9237713 C16.4052603,28.5657003 15.6949993,29.0722148 14.8466193,29.44333 C13.9982393,29.8144452 12.9525773,30 11.709602,30 C11.1768982,30 10.6096759,29.9197601 10.007918,29.7592778 C9.40616009,29.5987956 8.84387014,29.3731208 8.3210313,29.0822467 C7.79819246,28.7913727 7.34934697,28.450353 6.97448139,28.0591775 C6.5996158,27.6680021 6.37272688,27.2316975 6.29380781,26.7502508 C6.2346185,26.3691054 6.30860402,25.9879658 6.51576658,25.6068205 C6.72292914,25.2256751 6.98434464,24.9047154 7.30002093,24.6439318 C7.61569721,24.3831481 7.95109823,24.1975933 8.30623405,24.0872618 C8.66136987,23.9769302 8.94744721,23.9919752 9.16447465,24.1323972 C9.4406914,24.2728192 9.65278322,24.5135389 9.80075648,24.8545637 C9.94872973,25.1955885 10.126295,25.5416231 10.3334575,25.892678 C10.5406201,26.2437329 10.8119003,26.5546626 11.1473064,26.8254764 C11.4827124,27.0962902 11.9759492,27.2316951 12.6270316,27.2316951 C12.9821674,27.2316951 13.2929066,27.0060203 13.5592584,26.554664 C13.8256103,26.1033077 14.0574316,25.5466432 14.2547293,24.884654 C14.4520269,24.2226647 14.6147951,23.5155504 14.7430386,22.7632899 C14.8712821,22.0110293 14.9748618,21.323975 15.0537809,20.7021063 Z" id="path-2"></path>
        <filter x="-2.7%" y="-3.3%" width="105.3%" height="113.3%" filterUnits="objectBoundingBox" id="filter-3">
            <feOffset dx="0" dy="1" in="SourceAlpha" result="shadowOffsetOuter1"></feOffset>
            <feGaussianBlur stdDeviation="0.5" in="shadowOffsetOuter1" result="shadowBlurOuter1"></feGaussianBlur>
            <feColorMatrix values="0 0 0 0 0   0 0 0 0 0   0 0 0 0 0  0 0 0 0.1 0" type="matrix" in="shadowBlurOuter1"></feColorMatrix>
        </filter>
    </defs>
    <g id="Page-1" stroke="none" stroke-width="1" fill="none" fill-rule="evenodd">
        <g id="Combined-Shape">
            <use fill="black" fill-opacity="1" filter="url(#filter-3)" xlink:href="#path-2"></use>
            <use fill="url(#linearGradient-1)" fill-rule="evenodd" xlink:href="#path-2"></use>
        </g>
    </g>
</svg>