<?xml version="1.0" encoding="UTF-8"?>
<svg width="78px" height="32px" viewBox="0 0 78 32" version="1.1" xmlns="http://www.w3.org/2000/svg" xmlns:xlink="http://www.w3.org/1999/xlink">
    <!-- Generator: Sketch 44.1 (41455) - http://www.bohemiancoding.com/sketch -->
    <title>Combined Shape</title>
    <desc>Created with Sketch.</desc>
    <defs>
        <linearGradient x1="50%" y1="0%" x2="50%" y2="100%" id="linearGradient-1">
            <stop stop-color="#FCC824" offset="0%"></stop>
            <stop stop-color="#CCA224" offset="100%"></stop>
        </linearGradient>
        <path d="M29.6523582,16.9099495 C29.7105712,16.1498124 29.7951383,15.3225946 29.9060604,14.4282849 C30.0665427,13.1343967 30.2872024,11.7803481 30.5680464,10.3660983 C30.8488903,8.9518485 31.194925,7.6429348 31.6061607,6.43931795 C32.0173965,5.2357011 32.493821,4.21765712 33.0354486,3.38515547 C33.5770762,2.55265381 34.1989355,2.07622929 34.9010454,1.9558676 C35.1818893,1.93580732 35.482789,1.97592728 35.8037535,2.07622869 C36.124718,2.17653009 36.4256177,2.30691996 36.7064616,2.46740221 C37.0675467,2.62788445 37.3935213,2.85857422 37.6843954,3.15947844 C37.9752695,3.46038265 38.1507943,3.78134233 38.2109752,4.1223671 C38.2510957,4.30290963 38.2360507,4.49347944 38.1658398,4.69408225 C38.0956288,4.89468506 37.9602239,5.08525486 37.7596211,5.26579739 C37.4185963,5.64694273 37.0725617,6.19357718 36.7215068,6.90571715 C36.3704518,7.61785712 36.0244172,8.41524132 35.6833924,9.29789368 C35.3423676,10.180546 35.021408,11.0982901 34.7205037,12.0511535 C34.4195995,13.0040168 34.1638348,13.9167459 33.9532018,14.7893681 C33.7425689,15.6619903 33.587104,16.4543595 33.4868026,17.1664995 C33.3865012,17.8786395 33.3664413,18.4252739 33.4266221,18.8064193 C33.4667427,19.0672029 33.5519976,19.2678027 33.6823894,19.4082247 C33.8127812,19.5486466 34.018396,19.6188566 34.29924,19.6188566 C34.6202044,19.6188566 34.9762691,19.4834517 35.3674446,19.2126379 C35.75862,18.9418241 36.1347447,18.6258794 36.4958297,18.2647944 C36.7595897,18.0010344 37.0099673,17.7399532 37.2469664,17.4815467 C37.2034153,16.5092753 37.2790142,15.6269317 37.4737635,14.8345035 C37.7646376,13.6509469 38.2360471,12.6680079 38.8880063,11.885657 C39.5399654,11.103306 40.3072596,10.5165516 41.189912,10.1253761 C42.0725643,9.73420065 42.9852934,9.53861585 43.9281266,9.53861585 C44.2490911,9.53861585 44.5199008,9.60381078 44.7405639,9.73420261 C44.961227,9.86459443 45.0916169,10.0601792 45.1317374,10.3209629 C45.2119786,10.7422288 45.0815887,11.0130385 44.7405639,11.1334002 C44.1788761,11.2938824 43.6472866,11.5797372 43.1457796,11.9909729 C42.6442725,12.4022087 42.223013,12.9187532 41.8819882,13.5406219 C41.5409634,14.1624906 41.2952287,14.8746199 41.1447766,15.6770311 C40.9943245,16.4794423 40.9893095,17.3319915 41.1297314,18.2347041 C41.2099725,18.5757289 41.4105723,18.8966886 41.7315368,19.1975928 C42.0525013,19.498497 42.383491,19.6489468 42.7245158,19.6489468 C43.2661434,19.6489468 43.7626279,19.3580771 44.2139842,18.776329 C44.6653405,18.1945808 45.0414651,17.4172566 45.3423693,16.444333 C45.6432736,15.4714094 45.8539033,14.3630955 45.974265,13.1193581 C46.0946267,11.8756207 46.0946267,10.5917819 45.974265,9.26780341 C45.8739636,8.42527161 45.7184988,7.69809734 45.5078658,7.08625878 C45.2972329,6.47442021 45.0815881,5.92778576 44.860925,5.44633902 C44.6402619,4.96489228 44.4396621,4.52357272 44.2591196,4.1223671 C44.0785771,3.72116148 43.9782772,3.3099319 43.9582169,2.888666 C43.898036,2.52758094 43.948186,2.23169624 44.1086682,2.00100301 C44.2691505,1.77030978 44.4847953,1.58976996 44.7556091,1.45937813 C45.0264228,1.32898631 45.3273225,1.2387164 45.6583172,1.1885657 C45.9893118,1.13841499 46.2952265,1.10331003 46.5760704,1.08324975 C46.9572158,1.08324975 47.3333404,1.24874458 47.7044556,1.57973922 C48.0755708,1.91073385 48.4115755,2.3620834 48.7124797,2.9338014 C49.0133839,3.50551941 49.2791786,4.17251374 49.5098718,4.93480441 C49.7405651,5.69709509 49.9060599,6.50952427 50.0063613,7.37211635 C50.1066627,8.33500983 50.1618277,9.3630838 50.1718578,10.4563691 C50.1818879,11.5496544 50.116693,12.6328933 49.976271,13.7061184 C49.8358491,14.7793434 49.5951293,15.8124323 49.2541045,16.8054162 C48.9130798,17.7984002 48.4517002,18.6910693 47.8699521,19.4834504 C47.2882039,20.2758314 46.5560147,20.9327958 45.6733623,21.4543631 C44.79071,21.9759304 43.737561,22.2868601 42.5138839,22.3871615 C42.23304,22.427282 41.9471852,22.442327 41.6563112,22.4322969 C41.3654371,22.4222668 41.0795824,22.3971918 40.7987384,22.3570712 C39.9160861,22.196589 39.1688518,21.8254793 38.5570133,21.2437312 C38.1442009,20.8512211 37.8341268,20.3810936 37.6267875,19.8333418 C37.3599022,20.1221646 37.0631577,20.3967069 36.7365519,20.6569709 C36.0946229,21.1685081 35.3875086,21.5947826 34.6151878,21.9358074 C33.842867,22.2768322 33.0956327,22.447342 32.3734626,22.447342 C31.6914131,22.447342 31.0896137,22.2567722 30.5680464,21.8756269 C30.0464791,21.4944815 29.7255194,20.8726222 29.6051577,20.0100301 C29.5968444,19.954608 29.5895838,19.8933483 29.5833758,19.8262512 C29.3428065,20.0770447 29.0792552,20.3188454 28.7927204,20.551655 C28.1507914,21.0732223 27.4637371,21.5145418 26.7315368,21.8756269 C25.9993366,22.2367119 25.3323423,22.4172518 24.7305338,22.4172518 C23.8278212,22.4172518 23.1909168,22.2367119 22.8198016,21.8756269 C22.4486864,21.5145418 22.2029517,20.9428324 22.08259,20.1604814 C22.0224092,19.7793361 21.9873042,19.2728216 21.9772741,18.6409228 C21.9672439,18.0090239 21.9973339,17.3269846 22.0675449,16.5947844 C22.1377558,15.8625841 22.2531007,15.1153498 22.413583,14.3530592 C22.5740652,13.5907685 22.78971,12.8936842 23.0605238,12.2617854 C23.3313376,11.6298865 23.6573123,11.098297 24.0384576,10.667001 C24.4196029,10.235705 24.8709525,9.97994022 25.3925198,9.8996991 C25.9140871,9.83951825 26.3654366,9.85957823 26.746582,9.95987964 C27.1277273,10.060181 27.3885071,10.2106309 27.528929,10.4112337 C27.669351,10.6118365 27.7596209,10.8024063 27.7997415,10.9829488 C27.8198017,11.3640942 27.8047568,11.7101288 27.754606,12.0210632 C27.7044553,12.3319975 27.6242154,12.6529572 27.5138839,12.9839519 C27.4035523,13.3149465 27.2781775,13.6710111 27.1377555,14.0521565 C26.9973335,14.4333018 26.8468837,14.8946813 26.6864014,15.4363089 C26.5459795,15.8976954 26.3955296,16.4342998 26.2350474,17.0461384 C26.0745651,17.657977 25.9742652,18.2848514 25.9341447,18.9267803 C25.9742652,19.2477448 26.164835,19.4082247 26.5058598,19.4082247 C26.9271257,19.4082247 27.4236102,19.1424299 27.9953282,18.6108325 C28.5260651,18.1173403 29.0784037,17.5503842 29.6523582,16.9099495 Z M62.7646597,19.8659398 C62.4938183,20.1201554 62.1979233,20.3637718 61.8769732,20.5967904 C61.1447729,21.1283878 60.3172987,21.5596774 59.3945258,21.890672 C58.4717529,22.2216666 57.5088739,22.3871615 56.5058598,22.3871615 C55.7836897,22.3871615 55.1066654,22.2918766 54.4747665,22.1013039 C53.8428677,21.9107312 53.2862032,21.6349065 52.8047565,21.2738215 C52.3233098,20.9127364 51.9221102,20.4814468 51.6011457,19.9799398 C51.2801812,19.4784328 51.0595214,18.9067234 50.9391597,18.2647944 C50.7786775,17.3420215 50.7636325,16.3791424 50.8940243,15.3761284 C51.0244161,14.3731143 51.3203008,13.4704152 51.7816873,12.668004 C52.0224107,12.2467381 52.3283254,11.8455385 52.6994406,11.4643932 C53.0705557,11.0832478 53.5118753,10.7472432 54.0234125,10.4563691 C54.5349496,10.165495 55.121704,9.93480527 55.7836933,9.76429288 C56.4456826,9.59378049 57.1778718,9.50852558 57.9802831,9.50852558 C59.1237191,9.50852558 60.0013432,9.74423034 60.6131818,10.2156469 C61.2250203,10.6870635 61.601145,11.3139379 61.7415669,12.0962889 C61.8418683,12.818459 61.7315384,13.4954833 61.410574,14.1273821 C61.0896095,14.759281 60.6232149,15.3109304 60.0113764,15.782347 C59.3995378,16.2537636 58.6773785,16.6298883 57.8448769,16.9107322 C57.0123752,17.1915761 56.1347511,17.331996 55.2119782,17.331996 C55.272159,18.0140455 55.4727588,18.57071 55.8137836,19.002006 C56.1548084,19.4333021 56.7465778,19.6790368 57.5891096,19.7392177 C58.7927264,19.6990971 59.8809803,19.3279875 60.8539039,18.6258776 C61.396843,18.234066 61.9007333,17.7922812 62.3655795,17.3005188 C62.3386941,16.3994669 62.4165474,15.5774652 62.5991397,14.8345035 C62.8900137,13.6509469 63.3614233,12.6680079 64.0133824,11.885657 C64.6653415,11.103306 65.4326357,10.5165516 66.3152881,10.1253761 C67.1979405,9.73420065 68.1106695,9.53861585 69.0535027,9.53861585 C69.3744672,9.53861585 69.645277,9.60381078 69.8659401,9.73420261 C70.0866031,9.86459443 70.216993,10.0601792 70.2571136,10.3209629 C70.3373547,10.7422288 70.2069648,11.0130385 69.8659401,11.1334002 C69.3042522,11.2938824 68.7726627,11.5797372 68.2711557,11.9909729 C67.7696487,12.4022087 67.3483891,12.9187532 67.0073643,13.5406219 C66.6663395,14.1624906 66.4206048,14.8746199 66.2701527,15.6770311 C66.1197006,16.4794423 66.1146856,17.3319915 66.2551076,18.2347041 C66.3353487,18.5757289 66.5359485,18.8966886 66.856913,19.1975928 C67.1778775,19.498497 67.5088671,19.6489468 67.8498919,19.6489468 C68.3915195,19.6489468 68.888004,19.3580771 69.3393603,18.776329 C69.7907166,18.1945808 70.1668413,17.4172566 70.4677455,16.444333 C70.7686497,15.4714094 70.9792795,14.3630955 71.0996412,13.1193581 C71.2200028,11.8756207 71.2200028,10.5917819 71.0996412,9.26780341 C70.9993398,8.42527161 70.8438749,7.69809734 70.633242,7.08625878 C70.422609,6.47442021 70.2069642,5.92778576 69.9863011,5.44633902 C69.765638,4.96489228 69.5650382,4.52357272 69.3844957,4.1223671 C69.2039532,3.72116148 69.1036533,3.3099319 69.083593,2.888666 C69.0234122,2.52758094 69.0735621,2.23169624 69.2340444,2.00100301 C69.3945266,1.77030978 69.6101714,1.58976996 69.8809852,1.45937813 C70.151799,1.32898631 70.4526987,1.2387164 70.7836933,1.1885657 C71.1146879,1.13841499 71.4206026,1.10331003 71.7014466,1.08324975 C72.0825919,1.08324975 72.4587165,1.24874458 72.8298317,1.57973922 C73.2009469,1.91073385 73.5369516,2.3620834 73.8378558,2.9338014 C74.13876,3.50551941 74.4045547,4.17251374 74.635248,4.93480441 C74.8659412,5.69709509 75.031436,6.50952427 75.1317374,7.37211635 C75.2320388,8.33500983 75.2872038,9.3630838 75.2972339,10.4563691 C75.3072641,11.5496544 75.2420691,12.6328933 75.1016472,13.7061184 C74.9612252,14.7793434 74.7205054,15.8124323 74.3794807,16.8054162 C74.0384559,17.7984002 73.5770764,18.6910693 72.9953282,19.4834504 C72.4135801,20.2758314 71.6813908,20.9327958 70.7987384,21.4543631 C69.9160861,21.9759304 68.8629371,22.2868601 67.63926,22.3871615 C67.3584161,22.427282 67.0725614,22.442327 66.7816873,22.4322969 C66.4908132,22.4222668 66.2049585,22.3971918 65.9241146,22.3570712 C65.0414622,22.196589 64.294228,21.8254793 63.6823894,21.2437312 C63.2777893,20.8590295 62.9718806,20.3997679 62.7646597,19.8659398 Z M55.0916171,15.5265797 C55.5530035,15.5867606 55.9993381,15.5315956 56.4306341,15.3610832 C56.8619302,15.1905709 57.2330398,14.9548661 57.5439742,14.6539619 C57.8549085,14.3530577 58.0956283,14.007023 58.2661407,13.6158475 C58.436653,13.2246721 58.491818,12.8485474 58.4316371,12.4874624 C58.3915166,12.246739 58.3062617,12.0461392 58.1758698,11.885657 C58.045478,11.7251747 57.8398632,11.6449348 57.5590193,11.6449348 C57.2781754,11.6449348 57.0023506,11.7452347 56.7315368,11.9458375 C56.4607231,12.1464403 56.2099733,12.422265 55.9792801,12.77332 C55.7485868,13.1243749 55.553002,13.5356045 55.3925198,14.0070211 C55.2320375,14.4784377 55.1317376,14.9849522 55.0916171,15.5265797 Z M29.2625325,1.69670171 C29.6058766,1.52175922 29.9724952,1.88837805 29.7975525,2.231722 L28.7661072,4.25604477 L30.372619,5.86255653 C30.6427051,6.13264264 30.4139122,6.59113049 30.035707,6.53770872 L27.7485068,6.21463992 L26.6961489,8.26373068 C26.5207956,8.60516862 26.0113384,8.52475172 25.9496811,8.14590208 L25.5858858,5.91058124 L23.3366143,5.55921209 C22.9566572,5.49985722 22.8737055,4.98947661 23.2153083,4.81284725 L25.2818271,3.74433198 L24.9566024,1.45895368 C24.9027598,1.08059765 25.3614632,0.85140055 25.6316968,1.12163406 L27.2382087,2.72814589 L29.2625325,1.69670171 Z M14.2892099,20.7021063 C13.9281248,20.9027091 13.5319402,21.0932789 13.1006442,21.2738215 C12.6693481,21.454364 12.2230136,21.6098288 11.7616271,21.7402207 C11.3002407,21.8706125 10.8388611,21.9709124 10.3774747,22.0411234 C9.9160882,22.1113344 9.47476864,22.1464393 9.05350274,22.1464393 C7.68940364,22.1464393 6.48580485,21.9909745 5.44267024,21.6800401 C4.39953564,21.3691058 3.51188153,20.9328012 2.77968128,20.3711133 C2.04748102,19.8094255 1.46072661,19.1324012 1.01940043,18.3400201 C0.578074254,17.547639 0.287204545,16.6700148 0.146782579,15.7071214 C-0.0538202294,14.463384 -0.0488052345,13.2096352 0.161827714,11.9458375 C0.372460663,10.6820398 0.763630272,9.46841103 1.33534828,8.30491474 C1.90706628,7.14141846 2.63925555,6.05316454 3.53193805,5.04012036 C4.42462054,4.02707618 5.45269451,3.14945206 6.6161908,2.40722166 C7.77968709,1.66499127 9.06352581,1.07823686 10.4677455,0.646940822 C11.8719651,0.215644784 13.3764636,0 14.9812861,0 C15.6031548,0 16.2099692,0.1002999 16.8017475,0.300902708 C17.3935258,0.501505517 17.9301302,0.782345236 18.411577,1.14343029 C18.8930237,1.50451535 19.2992383,1.9458349 19.6302329,2.46740221 C19.9612276,2.98896951 20.1768723,3.56067894 20.2771738,4.18254764 C20.3774752,4.88465747 20.3473852,5.54162182 20.1869029,6.15346038 C20.0264207,6.76529895 19.7907159,7.30691841 19.4797816,7.77833501 C19.1688472,8.2497516 18.8077676,8.62086123 18.3965318,8.89167503 C17.9852961,9.16248882 17.5891115,9.29789368 17.2079661,9.29789368 C16.8669414,9.29789368 16.4807867,9.20260878 16.0494907,9.01203611 C15.6181947,8.82146344 15.1969351,8.58074368 14.7856993,8.28986961 C14.3744636,7.99899554 14.0234139,7.69308084 13.7325399,7.37211635 C13.4416658,7.05115186 13.266141,6.75025216 13.2059601,6.46940822 C13.1658395,6.12838345 13.3112744,5.86760371 13.642269,5.68706118 C13.9732637,5.50651866 14.3092683,5.30591886 14.6502931,5.08525577 C14.9712576,4.98495436 15.2821873,4.77432457 15.5830915,4.45336008 C15.8839957,4.13239559 16.0143856,3.79137593 15.974265,3.43029087 C15.9341445,3.12938666 15.7184997,2.87863691 15.3273242,2.6780341 C14.9361487,2.47743129 14.5299341,2.37713139 14.1086682,2.37713139 C13.2059556,2.37713139 12.3534065,2.60280617 11.5509952,3.05416249 C10.748584,3.50551881 10.0163947,4.09728821 9.35440545,4.82948847 C8.69241618,5.56168872 8.11569176,6.39919288 7.62421488,7.34202608 C7.132738,8.28485928 6.7265234,9.24272332 6.40555891,10.2156469 C6.08459441,11.1885706 5.86393464,12.1414196 5.74357295,13.0742227 C5.62321127,14.0070257 5.62321127,14.8344999 5.74357295,15.55667 C5.82381407,16.1183579 5.98930891,16.6449323 6.24006242,17.1364092 C6.49081593,17.6278861 6.8167906,18.0541607 7.21799622,18.4152457 C7.61920184,18.7763308 8.09061137,19.0571705 8.63223895,19.2577733 C9.17386653,19.4583761 9.77566593,19.558676 10.4376552,19.558676 C11.0795842,19.558676 11.7465785,19.4333012 12.4386582,19.1825476 C13.1307379,18.9317941 13.7977322,18.6058195 14.4396612,18.2046138 C14.5800832,17.141419 14.725518,16.2688098 14.8759701,15.5867603 C15.0264222,14.9047107 15.1969321,14.3630913 15.3875047,13.9618857 C15.5780774,13.56068 15.7987372,13.2848553 16.0494907,13.1344032 C16.3002442,12.9839511 16.5961289,12.9087262 16.9371537,12.9087262 C17.1176962,12.9087262 17.3885059,12.9488461 17.749591,13.0290873 C18.1106761,13.1093284 18.4717557,13.2246733 18.8328408,13.3751254 C19.1939258,13.5255775 19.5148855,13.6960873 19.7957294,13.88666 C20.0765734,14.0772326 20.2370532,14.2928774 20.2771738,14.5336008 C20.3172943,14.7542639 20.3022493,15.0601786 20.2320383,15.4513541 C20.1618274,15.8425295 20.0765724,16.2387141 19.976271,16.6399198 C19.6954271,17.6830544 19.4547074,18.7412183 19.2541045,19.8144433 C19.0535017,20.8876684 18.822812,21.9157423 18.5620283,22.8986961 C18.3012447,23.8816498 17.99533,24.8044089 17.6442751,25.667001 C17.2932201,26.5295931 16.8268256,27.2818423 16.2450775,27.9237713 C15.6633293,28.5657003 14.94117,29.0722148 14.078578,29.44333 C13.2159859,29.8144452 12.152807,30 10.8890093,30 C10.3473817,30 9.77065725,29.9197601 9.15881869,29.7592778 C8.54698012,29.5987956 7.97527069,29.3731208 7.44367325,29.0822467 C6.91207581,28.7913727 6.45571127,28.450353 6.07456593,28.0591775 C5.69342059,27.6680021 5.46273082,27.2316975 5.3824897,26.7502508 C5.32230886,26.3691054 5.39753378,25.9879658 5.60816673,25.6068205 C5.81879968,25.2256751 6.08459441,24.9047154 6.40555891,24.6439318 C6.7265234,24.3831481 7.06754306,24.1975933 7.42862812,24.0872618 C7.78971317,23.9769302 8.08058288,23.9919752 8.30124597,24.1323972 C8.5820899,24.2728192 8.79773469,24.5135389 8.94818679,24.8545637 C9.0986389,25.1955885 9.27917872,25.5416231 9.48981167,25.892678 C9.70044462,26.2437329 9.97626934,26.5546626 10.3172941,26.8254764 C10.6583189,27.0962902 11.1598184,27.2316951 11.8218077,27.2316951 C12.1828927,27.2316951 12.4988374,27.0060203 12.7696512,26.554664 C13.040465,26.1033077 13.2761697,25.5466432 13.4767725,24.884654 C13.6773754,24.2226647 13.8428702,23.5155504 13.973262,22.7632899 C14.1036538,22.0110293 14.2089687,21.323975 14.2892099,20.7021063 Z" id="path-2"></path>
        <filter x="-2.7%" y="-3.3%" width="105.3%" height="113.3%" filterUnits="objectBoundingBox" id="filter-3">
            <feOffset dx="0" dy="1" in="SourceAlpha" result="shadowOffsetOuter1"></feOffset>
            <feGaussianBlur stdDeviation="0.5" in="shadowOffsetOuter1" result="shadowBlurOuter1"></feGaussianBlur>
            <feColorMatrix values="0 0 0 0 0   0 0 0 0 0   0 0 0 0 0  0 0 0 0.1 0" type="matrix" in="shadowBlurOuter1"></feColorMatrix>
        </filter>
    </defs>
    <g id="user" stroke="none" stroke-width="1" fill="none" fill-rule="evenodd">
        <g id="home_user" transform="translate(-129.000000, -16.000000)">
            <g id="navbar">
                <g id="logo" transform="translate(130.000000, 16.000000)">
                    <g id="Combined-Shape">
                        <use fill="black" fill-opacity="1" filter="url(#filter-3)" xlink:href="#path-2"></use>
                        <use fill="url(#linearGradient-1)" fill-rule="evenodd" xlink:href="#path-2"></use>
                    </g>
                </g>
            </g>
        </g>
    </g>
</svg>